<mxfile host="app.diagrams.net" agent="Mozilla/5.0 (X11; Ubuntu; Linux x86_64; rv:132.0) Gecko/20100101 Firefox/132.0" version="24.8.6">
  <diagram name="Page-1" id="J-QcBrHbTVNc_MMZukYa">
    <mxGraphModel dx="940" dy="593" grid="1" gridSize="10" guides="1" tooltips="1" connect="1" arrows="1" fold="1" page="1" pageScale="1" pageWidth="850" pageHeight="1100" math="0" shadow="0">
      <root>
        <mxCell id="0" />
        <object label="underlayer" id="1">
          <mxCell parent="0" />
        </object>
        <mxCell id="QdFU0iHxxtC0Y1CG86fT-22" value="" style="endArrow=none;html=1;rounded=0;" edge="1" parent="1">
          <mxGeometry width="50" height="50" relative="1" as="geometry">
            <mxPoint x="360" y="260" as="sourcePoint" />
            <mxPoint x="140" y="110" as="targetPoint" />
          </mxGeometry>
        </mxCell>
        <mxCell id="QdFU0iHxxtC0Y1CG86fT-23" value="" style="endArrow=none;html=1;rounded=0;" edge="1" parent="1">
          <mxGeometry width="50" height="50" relative="1" as="geometry">
            <mxPoint x="360" y="110" as="sourcePoint" />
            <mxPoint x="140" y="260" as="targetPoint" />
          </mxGeometry>
        </mxCell>
        <mxCell id="QdFU0iHxxtC0Y1CG86fT-24" value="" style="endArrow=none;html=1;rounded=0;" edge="1" parent="1">
          <mxGeometry width="50" height="50" relative="1" as="geometry">
            <mxPoint x="140" y="90" as="sourcePoint" />
            <mxPoint x="360" y="90" as="targetPoint" />
          </mxGeometry>
        </mxCell>
        <mxCell id="QdFU0iHxxtC0Y1CG86fT-25" value="" style="endArrow=none;html=1;rounded=0;" edge="1" parent="1">
          <mxGeometry width="50" height="50" relative="1" as="geometry">
            <mxPoint x="140" y="290" as="sourcePoint" />
            <mxPoint x="360" y="290" as="targetPoint" />
          </mxGeometry>
        </mxCell>
        <mxCell id="QdFU0iHxxtC0Y1CG86fT-26" value="" style="endArrow=none;html=1;rounded=0;" edge="1" parent="1">
          <mxGeometry width="50" height="50" relative="1" as="geometry">
            <mxPoint x="120" y="110" as="sourcePoint" />
            <mxPoint x="120" y="260" as="targetPoint" />
          </mxGeometry>
        </mxCell>
        <mxCell id="QdFU0iHxxtC0Y1CG86fT-27" value="" style="endArrow=none;html=1;rounded=0;" edge="1" parent="1">
          <mxGeometry width="50" height="50" relative="1" as="geometry">
            <mxPoint x="390" y="110" as="sourcePoint" />
            <mxPoint x="390" y="260" as="targetPoint" />
          </mxGeometry>
        </mxCell>
        <mxCell id="QdFU0iHxxtC0Y1CG86fT-15" value="top" style="" parent="0" />
        <mxCell id="QdFU0iHxxtC0Y1CG86fT-17" value="" style="image;html=1;image=img/lib/clip_art/computers/Laptop_128x128.png" vertex="1" parent="QdFU0iHxxtC0Y1CG86fT-15">
          <mxGeometry x="360" y="30" width="80" height="80" as="geometry" />
        </mxCell>
        <mxCell id="QdFU0iHxxtC0Y1CG86fT-18" value="" style="image;html=1;image=img/lib/clip_art/networking/Ip_Camera_128x128.png" vertex="1" parent="QdFU0iHxxtC0Y1CG86fT-15">
          <mxGeometry x="90" y="270" width="40" height="50" as="geometry" />
        </mxCell>
        <mxCell id="QdFU0iHxxtC0Y1CG86fT-19" value="" style="image;html=1;image=img/lib/clip_art/telecommunication/iPhone_128x128.png" vertex="1" parent="QdFU0iHxxtC0Y1CG86fT-15">
          <mxGeometry x="375" y="280" width="40" height="50" as="geometry" />
        </mxCell>
        <mxCell id="QdFU0iHxxtC0Y1CG86fT-21" value="" style="image;html=1;image=img/lib/clip_art/general/Earth_globe_128x128.png" vertex="1" parent="QdFU0iHxxtC0Y1CG86fT-15">
          <mxGeometry x="210" y="150" width="80" height="80" as="geometry" />
        </mxCell>
        <mxCell id="QdFU0iHxxtC0Y1CG86fT-16" value="" style="image;html=1;image=img/lib/clip_art/computers/Workstation_128x128.png;flipH=1;" vertex="1" parent="QdFU0iHxxtC0Y1CG86fT-15">
          <mxGeometry x="40" y="20" width="80" height="80" as="geometry" />
        </mxCell>
        <mxCell id="QdFU0iHxxtC0Y1CG86fT-20" value="" style="image;html=1;image=img/lib/clip_art/networking/Firewall-page1_128x128.png" vertex="1" parent="QdFU0iHxxtC0Y1CG86fT-15">
          <mxGeometry x="100" y="60" width="30" height="40" as="geometry" />
        </mxCell>
      </root>
    </mxGraphModel>
  </diagram>
</mxfile>
